<mxfile host="app.diagrams.net" modified="2020-10-20T19:47:12.795Z" agent="5.0 (X11; Linux x86_64) AppleWebKit/537.36 (KHTML, like Gecko) Chrome/86.0.4240.75 Safari/537.36" etag="yw2lKa3F3TpYZK6xWAqO" version="13.8.1" type="github">
  <diagram id="53v8dq42LGFT9UUqRylZ" name="Page-1">
    <mxGraphModel dx="626" dy="1484" grid="1" gridSize="10" guides="1" tooltips="1" connect="1" arrows="1" fold="1" page="1" pageScale="1" pageWidth="850" pageHeight="1100" math="0" shadow="0">
      <root>
        <mxCell id="0" />
        <mxCell id="1" parent="0" />
        <mxCell id="bK_ojmAIrdOO6GyvwtLO-1" value="unit" style="rounded=0;whiteSpace=wrap;html=1;" vertex="1" parent="1">
          <mxGeometry x="100" y="300" width="110" height="100" as="geometry" />
        </mxCell>
        <mxCell id="bK_ojmAIrdOO6GyvwtLO-2" value="watcher" style="rounded=0;whiteSpace=wrap;html=1;" vertex="1" parent="1">
          <mxGeometry x="350" y="300" width="110" height="100" as="geometry" />
        </mxCell>
        <mxCell id="bK_ojmAIrdOO6GyvwtLO-4" value="backend" style="rounded=0;whiteSpace=wrap;html=1;" vertex="1" parent="1">
          <mxGeometry x="210" y="180" width="110" height="100" as="geometry" />
        </mxCell>
        <mxCell id="bK_ojmAIrdOO6GyvwtLO-5" value="" style="rounded=0;whiteSpace=wrap;html=1;" vertex="1" parent="1">
          <mxGeometry x="90" y="-20" width="250" height="150" as="geometry" />
        </mxCell>
        <mxCell id="bK_ojmAIrdOO6GyvwtLO-6" value="aws" style="text;html=1;strokeColor=none;fillColor=none;align=center;verticalAlign=middle;whiteSpace=wrap;rounded=0;" vertex="1" parent="1">
          <mxGeometry x="90" y="-20" width="250" height="20" as="geometry" />
        </mxCell>
      </root>
    </mxGraphModel>
  </diagram>
</mxfile>
